<svg xmlns="http://www.w3.org/2000/svg" viewBox="0 0 100 114" width="100" height="114"><defs></defs><g transform="matrix(1,0,0,1,-908.264397186,-476.917666454)">
<g>
	<g>
		<animateTransform attributeName="transform" type="rotate" from="0 977.0053928664352 559.5129508443997" to="360 977.0053928664352 559.5129508443997" dur="6s" repeatCount="indefinite"/>
		<path d="M972.8789385858324,528.3667705960996 C972.8789385858324,528.3667705960996 970.5249469793104,533.6423406574111 970.5249469793104,533.6423406574111 C970.2727747732735,534.2074880118919 963.4867977382268,536.9590355531755 962.900253678311,536.7339671003235 C962.900253678311,536.7339671003235 957.4249484882052,534.6329851867843 957.4249484882052,534.6329851867843 C956.3691691913608,534.2278619788322 951.1754072176434,539.312058882294 951.5892608806869,540.3455659738624 C951.5892608806869,540.3455659738624 953.7355192135572,545.7053667952928 953.7355192135572,545.7053667952928 C953.9654379193236,546.279537407704 951.1545941892031,552.9223607798837 950.5772678395389,553.1692132840144 C950.5772678395389,553.1692132840144 945.1880085928199,555.4735462313498 945.1880085928199,555.4735462313498 C944.1488211542545,555.9178807387852 944.1488211542545,563.1080209500142 945.1880085928199,563.5523554574496 C945.1880085928199,563.5523554574496 950.5772678395389,565.856688404785 950.5772678395389,565.856688404785 C951.1545941892031,566.1035409089158 953.9654379193236,572.7463642810955 953.7355192135572,573.3205348935066 C953.7355192135572,573.3205348935066 951.5892608806869,578.680335714937 951.5892608806869,578.680335714937 C951.1754072176433,579.7138428065055 956.3691691913608,584.7980397099673 957.4249484882052,584.3929165020152 C957.4249484882052,584.3929165020152 962.900253678311,582.2919345884759 962.900253678311,582.2919345884759 C963.4867977382268,582.066866135624 970.2727747732735,584.8184136769075 970.5249469793104,585.3835610313884 C970.5249469793104,585.3835610313884 972.8789385858324,590.6591310926998 972.8789385858324,590.6591310926998 C973.3328485566987,591.6763963397417 980.6779371761717,591.6763963397417 981.1318471470379,590.6591310926998 C981.1318471470379,590.6591310926998 983.48583875356,585.3835610313884 983.48583875356,585.3835610313884 C983.7380109595969,584.8184136769075 990.5239879946436,582.066866135624 991.1105320545594,582.2919345884759 C991.1105320545594,582.2919345884759 996.5858372446651,584.3929165020152 996.5858372446651,584.3929165020152 C997.6416165415095,584.7980397099673 1002.8353785152269,579.7138428065055 1002.4215248521834,578.680335714937 C1002.4215248521834,578.680335714937 1000.2752665193132,573.3205348935066 1000.2752665193132,573.3205348935066 C1000.0453478135468,572.7463642810955 1002.8561915436673,566.1035409089158 1003.4335178933314,565.856688404785 C1003.4335178933314,565.856688404785 1008.8227771400504,563.5523554574496 1008.8227771400504,563.5523554574496 C1009.8619645786158,563.1080209500142 1009.8619645786158,555.9178807387852 1008.8227771400504,555.4735462313498 C1008.8227771400504,555.4735462313498 1003.4335178933314,553.1692132840144 1003.4335178933314,553.1692132840144 C1002.8561915436673,552.9223607798837 1000.0453478135468,546.279537407704 1000.2752665193132,545.7053667952928 C1000.2752665193132,545.7053667952928 1002.4215248521834,540.3455659738624 1002.4215248521834,540.3455659738624 C1002.835378515227,539.312058882294 997.6416165415095,534.2278619788322 996.5858372446651,534.6329851867843 C996.5858372446651,534.6329851867843 991.1105320545594,536.7339671003235 991.1105320545594,536.7339671003235 C990.5239879946436,536.9590355531755 983.7380109595969,534.2074880118919 983.48583875356,533.6423406574111 C983.48583875356,533.6423406574111 981.1318471470379,528.3667705960996 981.1318471470379,528.3667705960996 C980.6779371761717,527.3495053490577 973.3328485566987,527.3495053490577 972.8789385858324,528.3667705960996 ZM977.0053928664352,549.8265049546709 C982.3502262570441,549.8265049546709 986.6918387513933,554.1681174532936 986.6918387513933,559.5129508443997 C986.6918387513933,564.8577842355058 982.3502262570441,569.1993967341285 977.0053928664352,569.1993967341285 C971.6605594758262,569.1993967341285 967.318946981477,564.8577842355058 967.318946981477,559.5129508443997 C967.318946981477,554.1681174532936 971.6605594758262,549.8265049546709 977.0053928664352,549.8265049546709 Z" fill="#f2fed2" stroke="#fdc921" stroke-width="1.6"/>
	</g>
	<g>
		<animateTransform attributeName="transform" type="rotate" from="0 940.4479504111916 508.94775523377285" to="-360 940.4479504111916 508.94775523377285" dur="6s" repeatCount="indefinite"/>
		<path d="M936.3214961305888,477.80157498547277 C936.3214961305888,477.80157498547277 933.9675045240668,483.07714504678427 933.9675045240668,483.07714504678427 C933.7153323180299,483.6422924012651 926.9293552829832,486.39383994254854 926.3428112230674,486.1687714896967 C926.3428112230674,486.1687714896967 920.8675060329617,484.0677895761574 920.8675060329617,484.0677895761574 C919.8117267361173,483.6626663682053 914.6179647623998,488.7468632716671 915.0318184254434,489.78037036323565 C915.0318184254434,489.78037036323565 917.1780767583136,495.14017118466586 917.1780767583136,495.14017118466586 C917.40799546408,495.71434179707717 914.5971517339595,502.35716516925675 914.0198253842954,502.6040176733876 C914.0198253842954,502.6040176733876 908.6305661375764,504.9083506207229 908.6305661375764,504.9083506207229 C907.591378699011,505.35268512815844 907.591378699011,512.5428253393873 908.6305661375764,512.9871598468228 C908.6305661375764,512.9871598468228 914.0198253842954,515.2914927941581 914.0198253842954,515.2914927941581 C914.5971517339595,515.538345298289 917.40799546408,522.1811686704685 917.1780767583136,522.7553392828798 C917.1780767583136,522.7553392828798 915.0318184254434,528.1151401043101 915.0318184254434,528.1151401043101 C914.6179647623999,529.1486471958785 919.8117267361173,534.2328440993405 920.8675060329617,533.8277208913883 C920.8675060329617,533.8277208913883 926.3428112230674,531.726738977849 926.3428112230674,531.726738977849 C926.9293552829832,531.5016705249972 933.71533231803,534.2532180662806 933.9675045240668,534.8183654207614 C933.9675045240668,534.8183654207614 936.3214961305889,540.0939354820729 936.3214961305889,540.0939354820729 C936.7754061014551,541.1112007291148 944.1204947209281,541.1112007291148 944.5744046917945,540.0939354820729 C944.5744046917945,540.0939354820729 946.9283962983164,534.8183654207614 946.9283962983164,534.8183654207614 C947.1805685043533,534.2532180662806 953.9665455394,531.5016705249972 954.5530895993159,531.726738977849 C954.5530895993159,531.726738977849 960.0283947894216,533.8277208913883 960.0283947894216,533.8277208913883 C961.084174086266,534.2328440993405 966.2779360599835,529.1486471958785 965.8640823969399,528.1151401043101 C965.8640823969399,528.1151401043101 963.7178240640696,522.7553392828798 963.7178240640696,522.7553392828798 C963.4879053583032,522.1811686704685 966.2987490884237,515.538345298289 966.8760754380879,515.2914927941581 C966.8760754380879,515.2914927941581 972.2653346848069,512.9871598468228 972.2653346848069,512.9871598468228 C973.3045221233723,512.5428253393873 973.3045221233723,505.35268512815844 972.2653346848069,504.9083506207229 C972.2653346848069,504.9083506207229 966.8760754380879,502.6040176733876 966.8760754380879,502.6040176733876 C966.2987490884237,502.35716516925675 963.4879053583032,495.71434179707717 963.7178240640696,495.14017118466586 C963.7178240640696,495.14017118466586 965.8640823969399,489.78037036323565 965.8640823969399,489.78037036323565 C966.2779360599834,488.7468632716671 961.084174086266,483.6626663682053 960.0283947894216,484.0677895761574 C960.0283947894216,484.0677895761574 954.5530895993159,486.1687714896967 954.5530895993159,486.1687714896967 C953.9665455394,486.39383994254854 947.1805685043532,483.6422924012651 946.9283962983164,483.07714504678427 C946.9283962983164,483.07714504678427 944.5744046917944,477.80157498547277 944.5744046917944,477.80157498547277 C944.1204947209281,476.78430973843086 936.7754061014551,476.78430973843086 936.3214961305888,477.80157498547277 ZM940.4479504111916,499.2613093440441 C945.7632293201219,499.2613093440441 950.0808346811702,503.6029218426667 950.0808346811702,508.94775523377285 C950.0808346811702,514.292588624879 945.763229320122,518.6342011235016 940.4479504111916,518.6342011235016 C935.1326715022614,518.6342011235016 930.815066141213,514.292588624879 930.815066141213,508.94775523377285 C930.815066141213,503.6029218426667 935.1326715022612,499.2613093440441 940.4479504111916,499.2613093440441 Z" fill="#f2fed2" stroke="#fdc921" stroke-width="1.6"/>
	</g>
</g></g></svg>